<?xml version="1.0" encoding="UTF-8" standalone="no"?>
<!-- Created with Inkscape (http://www.inkscape.org/) -->

<svg
   xmlns:dc="http://purl.org/dc/elements/1.1/"
   xmlns:cc="http://creativecommons.org/ns#"
   xmlns:rdf="http://www.w3.org/1999/02/22-rdf-syntax-ns#"
   xmlns:svg="http://www.w3.org/2000/svg"
   xmlns="http://www.w3.org/2000/svg"
   xmlns:sodipodi="http://sodipodi.sourceforge.net/DTD/sodipodi-0.dtd"
   xmlns:inkscape="http://www.inkscape.org/namespaces/inkscape"
   width="210mm"
   height="297mm"
   viewBox="0 0 744.09448819 1052.3622047"
   id="svg2"
   version="1.1"
   inkscape:version="0.91 r13725"
   sodipodi:docname="podcastvereichnis-footer.svg">
  <defs
     id="defs4" />
  <sodipodi:namedview
     id="base"
     pagecolor="#ffffff"
     bordercolor="#666666"
     borderopacity="1.0"
     inkscape:pageopacity="0.0"
     inkscape:pageshadow="2"
     inkscape:zoom="1.538598"
     inkscape:cx="354.73716"
     inkscape:cy="767.97605"
     inkscape:document-units="px"
     inkscape:current-layer="layer1"
     showgrid="false"
     inkscape:window-width="1280"
     inkscape:window-height="714"
     inkscape:window-x="0"
     inkscape:window-y="1"
     inkscape:window-maximized="1" />
  <metadata
     id="metadata7">
    <rdf:RDF>
      <cc:Work
         rdf:about="">
        <dc:format>image/svg+xml</dc:format>
        <dc:type
           rdf:resource="http://purl.org/dc/dcmitype/StillImage" />
        <dc:title></dc:title>
      </cc:Work>
    </rdf:RDF>
  </metadata>
  <g
     inkscape:label="Ebene 1"
     inkscape:groupmode="layer"
     id="layer1">
    <rect
       style="opacity:1;fill:#ffffff;fill-opacity:1;fill-rule:evenodd;stroke:none;stroke-width:25.95100021;stroke-linecap:round;stroke-linejoin:round;stroke-miterlimit:4;stroke-dasharray:none;stroke-dashoffset:0;stroke-opacity:1"
       id="rect4360"
       width="129.30742"
       height="40.050968"
       x="220.85249"
       y="393.23767"
       rx="6.79072"
       ry="7.0999899" />
    <path
       style="fill:#fcbf00;fill-opacity:1;fill-rule:evenodd;stroke:#fcbf00;stroke-width:1px;stroke-linecap:butt;stroke-linejoin:miter;stroke-opacity:1"
       d="M 284.93555 117.74414 A 147.21196 143.3123 0 0 0 270.24023 118.4668 A 147.21196 143.3123 0 0 0 242.20312 123.97266 L 245.95117 136.1582 A 137.13785 135.83797 0 0 1 270.27539 131.42773 A 137.13785 135.83797 0 0 1 283.96484 130.74414 A 137.13785 135.83797 0 0 1 414.04297 223.92188 L 425.99414 220.10938 A 147.21196 143.3123 0 0 0 284.93555 117.74414 z M 284.62109 143.09375 A 123.48905 123.81403 0 0 0 272.29297 143.7168 A 123.48905 123.81403 0 0 0 249.66797 148.24414 L 253.52734 160.78711 A 113.41495 117.96455 0 0 1 273.62891 156.68555 A 113.41495 117.96455 0 0 1 390.71875 231.35742 L 401.75391 227.83984 A 123.48905 123.81403 0 0 0 284.62109 143.09375 z M 287.55859 167.79102 A 94.566612 98.791245 0 0 0 278.11719 168.28906 A 94.566612 98.791245 0 0 0 257.3125 173.0957 L 260.72852 184.19922 A 87.742218 89.042114 0 0 1 275.87695 181.23828 A 87.742218 89.042114 0 0 1 284.63672 180.78906 A 87.742218 89.042114 0 0 1 366.90625 238.95117 L 377.33203 235.62695 A 94.566612 98.791245 0 0 0 287.55859 167.79102 z M 291.20508 197.6582 L 291.20508 312.30078 C 291.37218 312.49573 291.31805 317.29546 284.26953 317.93164 L 283.83594 317.89258 C 276.33622 317.44568 276.25 312.54102 276.25 312.54102 L 276.07227 197.89844 C 276.07227 197.89844 270.87784 197.66936 268.00195 198.19922 C 262.98048 198.87217 259.64258 200.93359 259.64258 200.93359 L 260.17969 287.89844 C 260.17969 287.89844 259.03267 294.39047 252.51758 294.42773 C 245.69843 294.46673 244.82227 288.07617 244.82227 288.07617 L 244.82227 209.14844 C 244.82227 209.14844 231.09215 217.50012 223.02148 230.5293 C 216.7141 240.71185 213.83987 254.6383 212.88477 260.23828 C 212.61776 261.80382 212.5826 262.46846 212.5 263.52344 C 212.4174 264.57842 212.40039 266.64844 212.40039 266.64844 L 212.14258 398.43359 C 212.14258 398.43359 211.86609 406.84142 217.85742 415.04102 C 223.84876 423.24062 229.46484 423.79102 229.46484 423.79102 L 251.51562 424.44922 C 251.51562 424.44922 252.64077 424.47972 253.08008 424.86328 C 253.51939 425.24685 253.6582 426.10547 253.6582 426.10547 L 254.07617 428.60352 C 254.07617 428.60352 254.24693 429.22043 253.95117 429.57031 C 253.6554 429.92019 252.8125 429.86523 252.8125 429.86523 L 154.0332 430.07031 L 154.1582 432.42383 L 253.75195 432.4082 C 253.75195 432.4082 257.45558 432.53493 257.14258 430.04102 C 257.14258 430.04102 256.45706 422.90498 254.77734 422.13867 C 253.0976 421.37232 230 420.93359 230 420.93359 C 230 420.93359 225.54497 420.71499 220.71484 413.96875 C 215.88472 407.22251 215 398.25586 215 398.25586 L 215 267.45117 C 215 267.45117 215.0716 264.39984 215.17773 263.25586 C 215.28384 262.11189 215.22163 262.80268 215.66016 260.61914 C 216.96791 254.10684 220.2033 240.1359 225.23047 232.13867 C 231.94322 221.46002 242.5 213.79102 242.5 213.79102 L 242.5 287.89844 C 242.5 287.89844 242.96727 296.64472 252.21484 296.64844 C 261.41174 296.65244 262.5 288.05469 262.5 288.05469 L 262.14258 203.07617 C 262.14258 203.07617 265.24409 201.42588 268.14258 201.07617 C 270.61559 200.7778 273.25 200.86133 273.25 200.86133 L 273.39258 312.34766 C 273.26641 312.6 273.76473 320.73271 283.94141 320.94141 C 293.6326 320.82645 294.26017 313.09949 294.0625 312.83594 L 293.88477 200.69336 C 293.88477 200.69336 296.46698 200.64276 298.84766 201.05078 C 300.58857 201.34918 305.13477 202.83594 305.13477 202.83594 L 304.77734 287.58398 C 304.77734 287.58398 304.58177 296.55066 314.95508 296.55078 C 324.04048 296.55088 324.77734 287.6582 324.77734 287.6582 L 324.77734 213.55078 C 324.77734 213.55078 335.33411 221.21979 342.04688 231.89844 C 347.07403 239.89567 350.30944 253.86661 351.61719 260.37891 C 352.05572 262.56245 351.9935 261.87166 352.09961 263.01562 C 352.20574 264.1596 352.27734 267.21094 352.27734 267.21094 L 352.27734 398.01562 C 352.27734 398.01563 351.39262 406.98228 346.5625 413.72852 C 341.73237 420.47476 337.27734 420.69336 337.27734 420.69336 C 337.27734 420.69336 314.17973 421.13212 312.5 421.89844 C 310.82028 422.66475 310.13477 429.80078 310.13477 429.80078 C 309.82177 432.29469 313.52539 432.16797 313.52539 432.16797 L 413.11719 432.18359 L 413.24414 429.83203 L 314.46484 429.625 C 314.46484 429.625 313.62194 429.6819 313.32617 429.33203 C 313.03041 428.98215 313.20117 428.36328 313.20117 428.36328 L 313.61719 425.86523 C 313.61719 425.86523 313.75796 425.00662 314.19727 424.62305 C 314.63658 424.23953 315.76172 424.20898 315.76172 424.20898 L 337.8125 423.55078 C 337.8125 423.55078 343.42858 423.00038 349.41992 414.80078 C 355.41125 406.60118 355.13477 398.19336 355.13477 398.19336 L 354.87695 266.4082 C 354.87695 266.4082 354.85994 264.33818 354.77734 263.2832 C 354.69474 262.22822 354.65959 261.56359 354.39258 259.99805 C 353.43748 254.39807 350.56324 240.47161 344.25586 230.28906 C 336.18519 217.25988 322.45508 208.9082 322.45508 208.9082 L 322.45508 287.83594 C 322.45508 287.83594 321.9329 294.12254 314.63281 294.01367 C 308.2619 293.91867 307.3125 288.05078 307.3125 288.05078 L 307.63477 200.69336 C 307.63477 200.69336 302.29523 198.48841 298.99023 198.10156 C 295.68523 197.71471 291.20508 197.6582 291.20508 197.6582 z "
       id="path4332"
       inkscape:export-xdpi="91"
       inkscape:export-ydpi="91" />
  </g>
</svg>
